<svg xmlns="http://www.w3.org/2000/svg" width="58.143" height="58.085" viewBox="0 0 58.143 58.085">
  <g id="Group_78" data-name="Group 78" transform="translate(-2222.876 -2855.693)">
    <path id="Path_117" data-name="Path 117" d="M2275.556,2859.773a.978.978,0,0,1,1.382,1.385l-27.146,27.148a.98.98,0,0,1-1.387-1.385Zm-18.47,24.009a8.747,8.747,0,0,1,.612,1.745l1.714.659v2.8l-1.714.66a8.817,8.817,0,0,1-1.071,2.584l.745,1.679-1.979,1.978-1.678-.743a8.738,8.738,0,0,1-2.586,1.07l-.658,1.714h-2.8l-.658-1.714a8.872,8.872,0,0,1-2.586-1.07l-1.678.743-1.979-1.978.745-1.679a8.784,8.784,0,0,1-1.071-2.584l-1.714-.66v-2.8l1.714-.659a8.794,8.794,0,0,1,1.071-2.588l-.745-1.679,1.979-1.978,1.678.746a8.849,8.849,0,0,1,2.586-1.071l.658-1.716h2.8l.658,1.716a8.8,8.8,0,0,1,1.821.651l-3.148,3.149a4.882,4.882,0,1,0,4.152,4.827,5.24,5.24,0,0,0-.04-.63Zm7.83-7.828,5.565,1.2a2.566,2.566,0,0,0,2.315-.653,26.21,26.21,0,1,1-12.558-12.6,2.559,2.559,0,0,0-.678,2.341l1.2,5.562-.617.616a18.827,18.827,0,1,0,4.146,4.164Z" fill="#002d72" fill-rule="evenodd"/>
    <path id="Path_118" data-name="Path 118" d="M2276.979,2863.89l3.56.768a.614.614,0,0,1,.3,1.031l-9.385,9.385a.611.611,0,0,1-.561.165l-4.331-.933Zm-14.573,6.261-.933-4.327a.616.616,0,0,1,.168-.561l9.385-9.391a.606.606,0,0,1,.6-.154.624.624,0,0,1,.429.458l.765,3.559Zm.48,7.832a16.868,16.868,0,1,1-4.147-4.166l-3.509,3.513a1.945,1.945,0,0,0-.633.162l-.8.353a10.914,10.914,0,0,0-1.188-.494l-.316-.812a1.955,1.955,0,0,0-1.826-1.256h-2.8a1.96,1.96,0,0,0-1.826,1.253l-.311.814a10.684,10.684,0,0,0-1.2.495l-.791-.353a1.961,1.961,0,0,0-2.183.4l-1.979,1.979a1.954,1.954,0,0,0-.4,2.18l.352.8a11.079,11.079,0,0,0-.5,1.2l-.811.312a1.961,1.961,0,0,0-1.255,1.828v2.8a1.961,1.961,0,0,0,1.255,1.828l.811.312a11.155,11.155,0,0,0,.5,1.194l-.352.794a1.954,1.954,0,0,0,.4,2.18l1.979,1.979a1.958,1.958,0,0,0,2.178.405l.8-.353a10.743,10.743,0,0,0,1.2.5l.311.81a1.954,1.954,0,0,0,1.826,1.254h2.8a1.955,1.955,0,0,0,1.826-1.254l.311-.81a10.718,10.718,0,0,0,1.2-.5l.8.352a1.96,1.96,0,0,0,2.178-.405l1.979-1.979a1.961,1.961,0,0,0,.4-2.178l-.352-.8a11.1,11.1,0,0,0,.495-1.194l.811-.312a1.961,1.961,0,0,0,1.255-1.828v-2.8a1.961,1.961,0,0,0-1.255-1.828l-.811-.312a10.143,10.143,0,0,0-.495-1.2l.352-.8a2.142,2.142,0,0,0,.148-.493Z" fill="#777" fill-rule="evenodd"/>
  </g>
</svg>
