<svg xmlns="http://www.w3.org/2000/svg" width="57.923" height="59.832" viewBox="0 0 57.923 59.832">
  <g id="Group_76" data-name="Group 76" transform="translate(-1833.128 -2860.715)">
    <path id="Path_112" data-name="Path 112" d="M1864.629,2881.744l-.054,1.35a1.76,1.76,0,0,0,1.062,1.686l.877.378a10.541,10.541,0,0,0,.5,1.356s-.285.58-.387.786a12.761,12.761,0,0,1-3.471,1.217l-1.059,2.454-4.071-.161-.861-2.531a12.948,12.948,0,0,1-3.7-1.708l-2.486.985-2.764-2.992,1.18-2.4a12.758,12.758,0,0,1-1.409-3.822l-2.455-1.058.162-4.072,2.531-.86a12.9,12.9,0,0,1,1.708-3.7l-.985-2.487,2.992-2.763,2.4,1.183a12.9,12.9,0,0,1,3.822-1.412l1.059-2.455,4.071.162.86,2.531a12.91,12.91,0,0,1,3.7,1.712l2.487-.99,2.763,2.993-1.183,2.4a12.884,12.884,0,0,1,1.134,2.693c-.236.087-.469.181-.7.285l-.857-.424a1.762,1.762,0,0,0-1.973.286l-1.956,1.807a7.11,7.11,0,1,0-2.942,7.573Z" fill="#002d72" fill-rule="evenodd"/>
    <path id="Path_113" data-name="Path 113" d="M1881.554,2882.371a4.867,4.867,0,1,0-5.055,4.672A4.864,4.864,0,0,0,1881.554,2882.371Zm3.65,2.2a8.8,8.8,0,0,1-1.17,2.532l.678,1.7-2.049,1.892-1.644-.808a8.758,8.758,0,0,1-2.619.964l-.725,1.681-2.788-.111-.589-1.733a8.845,8.845,0,0,1-2.532-1.169l-1.7.675-1.892-2.049.807-1.644a8.725,8.725,0,0,1-.964-2.617l-1.681-.724.111-2.788,1.733-.589a8.83,8.83,0,0,1,1.169-2.535l-.674-1.7,2.048-1.892,1.644.81a8.845,8.845,0,0,1,2.617-.967l.725-1.681,2.787.111.589,1.733a8.833,8.833,0,0,1,2.535,1.172l1.7-.677,1.892,2.049-.811,1.643a8.763,8.763,0,0,1,.965,2.617l1.683.727-.111,2.788Z" fill="#777" fill-rule="evenodd"/>
    <path id="Path_114" data-name="Path 114" d="M1837.158,2902.464a1.289,1.289,0,1,0,1.468,1.086A1.288,1.288,0,0,0,1837.158,2902.464Zm2.123-2.241,9.131,16.133a1.637,1.637,0,0,1-.618,2.222l-3.1,1.76a1.632,1.632,0,0,1-2.218-.617l-9.131-16.133a1.63,1.63,0,0,1,.612-2.222l3.1-1.76A1.641,1.641,0,0,1,1839.281,2900.223Zm8.967,11.727-5.45-9.626,7.346-4.252c1.906-1.1,3.823-1.963,5.915-1.284h0c2.667.863,7.008,2.7,11.444,3.518a2.185,2.185,0,0,1,1.484,2.585h0a2.111,2.111,0,0,1-2.525,1.5c-2.439-.5-4.705-1.244-7.224-1.92a1.013,1.013,0,1,0-.523,1.958c2.567.691,4.885,1.445,7.383,1.957a.249.249,0,0,0,.042.008l1.373.224h0a8.161,8.161,0,0,0,5.609-.987l11.069-6.447c2.276-1.324,3.945-1.713,5.133-1.464a2.217,2.217,0,0,1,1.717,2.495,2.151,2.151,0,0,1-.882,1.69l-20.09,12.369h0a6.385,6.385,0,0,1-5.17.727l-14.575-3.905a1,1,0,0,0-.766.1Z" fill="#002d72" fill-rule="evenodd"/>
  </g>
</svg>
