<svg xmlns="http://www.w3.org/2000/svg" width="58.349" height="58.349" viewBox="0 0 58.349 58.349">
  <g id="Group_77" data-name="Group 77" transform="translate(-2029.328 -2856.415)">
    <path id="Path_115" data-name="Path 115" d="M2052.693,2909.93a24.914,24.914,0,0,1-7.291-3.023l-4.737,2.1-5.584-5.583,2.1-4.737a24.891,24.891,0,0,1-3.023-7.292l-4.833-1.861v-7.9l4.834-1.86q.248-1.036.58-2.044a12.152,12.152,0,0,0,8.093.5l.35.351a16.844,16.844,0,0,0,22.314,22.314l2.8,2.8a10.848,10.848,0,0,0,.1,4.872,24.879,24.879,0,0,1-4.082,1.354l-1.861,4.834h-7.9Zm5.809-39.134a6.039,6.039,0,1,1-6.038,6.039A6.039,6.039,0,0,1,2058.5,2870.8Zm-10.434,23.951a1.212,1.212,0,0,1-1.183-1.5,11.946,11.946,0,0,1,23.234,0,1.212,1.212,0,0,1-1.183,1.5Zm2.581-32.918,0,0q1.008-.333,2.044-.58l1.861-4.834h7.9l1.861,4.835a24.915,24.915,0,0,1,7.291,3.022l4.738-2.1,5.584,5.584-2.1,4.736a24.888,24.888,0,0,1,3.023,7.293l4.834,1.86v7.9l-4.834,1.861a24.89,24.89,0,0,1-1.355,4.082,10.817,10.817,0,0,0-4.871-.1l-2.8-2.8a16.843,16.843,0,0,0-22.314-22.314l-.35-.35a12.163,12.163,0,0,0-.506-8.094Z" fill="#002d72" fill-rule="evenodd"/>
    <path id="Path_116" data-name="Path 116" d="M2029.328,2866.589a10.178,10.178,0,0,0,14.024,9.419l8.074,8.075a13.8,13.8,0,0,1,2.09-1.013,7.986,7.986,0,0,1-2.023-10.058l-2.573-2.573a10.178,10.178,0,0,0-12.59-13.519l7.233,7.233-1.373,5.125-5.125,1.373-7.233-7.233a10.162,10.162,0,0,0-.5,3.171m52.86,42.686-4.568,1.224-3.344-3.343,1.224-4.569,4.568-1.224,3.344,3.345Zm-18.152-12.583,6.431,6.431a8.83,8.83,0,1,0,5.569-5.568l-3.938-3.938a3.165,3.165,0,0,1-3.162,3.075Zm-13.387-34.863c.625,1.461.672-.222,0,0" fill="#777" fill-rule="evenodd"/>
  </g>
</svg>
