<svg xmlns="http://www.w3.org/2000/svg" width="157.377" height="79.504" viewBox="0 0 157.377 79.504">
  <g id="Group_73" data-name="Group 73" transform="translate(-1918.149 -51.876)">
    <path id="Path_76" data-name="Path 76" d="M1934.864,91.366l16.189-39.454,50.216-.029,7.13,25.02,7.045-25.027h17.99l1.724,39.49H2021.44l.075-19.408-7.134,19.282-.059.091-12.733.022-6.759-19.245V91.366h-36.5l.076-8.949c-.02-.141-.722.03-.86.035-1.706.06-3.425-.058-5.131,0l-3.043,8.91Zm48.423-38.891h-14.242l-.075,8.393h2.811l-.037,21.506-2.7.075v8.317h14.242V82.374l-2.774.075V60.868h2.7ZM1958.4,75.03V61.692l-4.123,13.338Z" fill="#fff"/>
    <path id="Path_77" data-name="Path 77" d="M2041.905,110.025l.819.341c2.129,1.239,2.757,4.247.48,5.716a17.449,17.449,0,0,1-4.267,1.579c-.945.124-1.651-.516-2.62-.446-1.128.082-2.521.566-3.67.534-.7-.019-.823-.883-.94-1.428a3.73,3.73,0,0,0-1.065.317c-1.267.349-2.461-.6-3.751-.453-7.552,3.744-14.888,7.945-22.464,11.638-1.646.8-3.44,1.67-5.123,2.372a17.264,17.264,0,0,1-4.7,1.185c-.033-.2.058-.26.2-.362a24.13,24.13,0,0,1,2.922-1.5c7.284-3.615,14.546-7.245,21.59-11.313a39.288,39.288,0,0,0,3.548-2.185c-1.718.369-3.428.785-5.159,1.1a61.559,61.559,0,0,1-12.551,1.091c-5.006,1.946-10.116,4.767-15.272,6.239-.308.088-1.064.4-.778-.119l12.172-6.439a.921.921,0,0,1-.091-1.251c.447-.758,1.542-1.052,1.894-1.933l-.039-.113c-.5-.437-1.027-.883-1.5-1.346q-5.821-5.645-11.658-11.275a.371.371,0,0,1-.064-.335,20.386,20.386,0,0,1,3.891-1.024c3.616,1.712,7.185,3.555,10.818,5.227,1.843.848,5.2,2.481,7.135,2.609a7.318,7.318,0,0,0,3.879-.767c7.353-2.77,14.59-5.865,21.944-8.636l.823-3.9c.029-1.771-.07-3.547.085-5.31l.064-.086a12.9,12.9,0,0,0,1.855-.843c.315-.115.675-.288.884.057l4.951,6.674,15.509-6.151a23.855,23.855,0,0,1,3.9-.825c1.751-.112,5.166.87,6.937,1.389,1.53.45,3.628.876,2.885,2.959-.55,1.541-3.99,4.209-5.408,5.16-6.987,4.685-16.6,6.529-24.352,9.751A27.4,27.4,0,0,1,2041.905,110.025Z" fill="#ff7d00"/>
    <path id="Path_78" data-name="Path 78" d="M1918.149,86.72c1.115.995,1.984,2.248,2.995,3.336a91.442,91.442,0,0,0,57.832,27.837,113.6,113.6,0,0,0,15.666.073c1.193-.073,2.4-.262,3.6-.3.1,0,.492-.017.489.116a12.788,12.788,0,0,1-1.815.657,69.707,69.707,0,0,1-16.062,3.351,99.346,99.346,0,0,1-38.323-4.25,109.8,109.8,0,0,1-18.791-7.742C1921.8,102.124,1919.653,94.5,1918.149,86.72Z" fill="#ff7d00"/>
    <path id="Path_79" data-name="Path 79" d="M1999.853,93.839l.487,1.874.562-1.874h1.274l.151,3.6c-.205-.034-.839.077-.943-.071-.152-.218.1-1.456-.145-1.8-.087,0-.4,1.484-.5,1.673-.107.207-.667.166-.849.053l-.485-1.575c-.142.3.011,1.581-.146,1.691s-.694,0-.905.033l.225-3.6Z" fill="#fff"/>
    <path id="Path_80" data-name="Path 80" d="M2027.812,95.487V93.839h.974v3.484c0,.16-.883.158-1.017.043l-1.081-1.879v1.836c0,.168-.975.168-.975,0V93.839h1.087C2026.907,93.839,2027.59,95.336,2027.812,95.487Z" fill="#fff"/>
    <path id="Path_81" data-name="Path 81" d="M1962.823,93.839l.975,1.8v-1.8h.9v3.6l-.975-.036-1.124-1.987v2.023c-.169-.018-.974.071-.974-.112V93.839Z" fill="#fff"/>
    <path id="Path_82" data-name="Path 82" d="M2009.485,93.839l1.012,1.723V93.839h.974v3.484c0,.161-.883.158-1.018.043l-1.156-1.954v2.023h-.9v-3.6Z" fill="#fff"/>
    <path id="Path_83" data-name="Path 83" d="M1954.54,93.839l1.087,1.8v-1.8h.9v3.6l-.976-.036-1.123-1.987v2.023c-.169-.018-.975.071-.975-.112V93.839Z" fill="#fff"/>
    <path id="Path_84" data-name="Path 84" d="M2019.379,93.839l1.012,1.723V93.839h.975v3.484c0,.159-.86.159-1.018.043-.339-.246-.762-1.63-1.156-1.954v2.023h-.9v-3.6Z" fill="#fff"/>
    <path id="Path_85" data-name="Path 85" d="M1950.735,93.781c2.876-.486,2.973,4.063-.011,3.648C1948.933,97.179,1948.977,94.079,1950.735,93.781Zm-.029.983c-.506.5-.319,2.13.67,1.832S1951.7,93.785,1950.706,94.764Z" fill="#fff"/>
    <path id="Path_86" data-name="Path 86" d="M1990.088,93.781c2.694-.455,2.758,3.318.864,3.637C1988.174,97.885,1988.155,94.108,1990.088,93.781Zm.224.822c-.679.148-.713,1.839,0,1.993C1991.523,96.857,1991.493,94.345,1990.312,94.6Z" fill="#fff"/>
    <path id="Path_87" data-name="Path 87" d="M1977.44,93.839v2.435c0,.427.974.427.974,0V93.839h1.05v2.21a2.349,2.349,0,0,1-.42,1,1.808,1.808,0,0,1-2.123.114,1.885,1.885,0,0,1-.53-1.043V93.839Z" fill="#fff"/>
    <path id="Path_88" data-name="Path 88" d="M1943.559,97.435a3.973,3.973,0,0,0-.271-.9,5.091,5.091,0,0,0-.768.016c-.109.07-.125.8-.36.876a3.053,3.053,0,0,1-.926-.026l1.058-3.551,1.221-.012,1.1,3.6Zm-.45-1.724-.224-.673-.151.674Z" fill="#fff"/>
    <path id="Path_89" data-name="Path 89" d="M2003.978,96.539c-.032.032-.1.778-.223.863-.149.106-.761-.007-.979.033l.989-3.47c.09-.174,1.03-.177,1.212-.116s.963,3.086,1.169,3.475c-.012.148-.861.148-1,.1-.211-.071-.219-.768-.343-.856A3.023,3.023,0,0,0,2003.978,96.539Zm.6-.827c.036-.037-.075-.644-.224-.674l-.151.673Z" fill="#fff"/>
    <path id="Path_90" data-name="Path 90" d="M1934.929,93.848l1.059,3.587c-.242-.042-.788.077-.976-.036s-.19-.671-.289-.819a2.232,2.232,0,0,0-.824-.034c-.059.038-.2.846-.242.882a3.824,3.824,0,0,1-.971-.028l.986-3.554Zm-.44,1.863-.224-.673-.151.673Z" fill="#fff"/>
    <path id="Path_91" data-name="Path 91" d="M2024.139,97.435a9.069,9.069,0,0,0-.232-.891,2.318,2.318,0,0,0-.826.037c-.4.567.17,1.045-1.265.854l1.094-3.6,1.222.012,1.056,3.589Zm-.45-1.724-.224-.673-.151.674Z" fill="#fff"/>
    <path id="Path_92" data-name="Path 92" d="M2035.158,93.839v.824h-1.349v.449h1.274v.9h-1.274v.524h1.424v.9h-2.286a.745.745,0,0,1-.113-.112V93.839Z" fill="#fff"/>
    <path id="Path_93" data-name="Path 93" d="M1985.61,93.839v.824h-1.349v.449h1.275c-.015.16.065.9-.113.9h-1.162v.524h1.424c-.014.16.066.9-.112.9h-2.286v-3.6Z" fill="#fff"/>
    <path id="Path_94" data-name="Path 94" d="M2017.618,93.839v.824h-1.35v.449h1.275c-.015.16.065.9-.113.9h-1.162v.524h1.425c-.015.16.065.9-.113.9h-2.286v-3.6Z" fill="#fff"/>
    <path id="Path_95" data-name="Path 95" d="M1937.038,93.839l.525,2.1c.1-.01.12-.107.153-.184a15.355,15.355,0,0,0,.521-1.914h1.124l-1.182,3.426c-.1.271-1,.232-1.135.052l-1.131-3.478Z" fill="#fff"/>
    <path id="Path_96" data-name="Path 96" d="M1967.768,93.917a2,2,0,0,1-.259.894c-.2-.34-1.54-.229-1.041.159.453.351,1.454.342,1.459,1.3.005,1.049-1.158,1.264-1.987,1.156s-.656-.357-.422-1.012c.078-.062,1.357.491,1.357-.067,0-.434-1.544-.369-1.51-1.5C1965.4,93.691,1966.926,93.579,1967.768,93.917Z" fill="#fff"/>
    <path id="Path_97" data-name="Path 97" d="M2032.306,93.918l-.147.82c-.662-.215-1.619-.256-1.725.635-.139,1.164.689,1.387,1.654,1.119.17.468.352.846-.273.936-1.107.16-2.292-.2-2.429-1.453C2029.185,94.146,2030.723,93.375,2032.306,93.918Z" fill="#fff"/>
    <path id="Path_98" data-name="Path 98" d="M1995.13,93.839v.824h-1.274v.524h1.2v.9h-1.2v1.236c0,.169-1.05.169-1.05,0V93.839Z" fill="#fff"/>
    <path id="Path_99" data-name="Path 99" d="M1947.307,93.839v.824h-.9v2.66c0,.169-1.049.169-1.049,0v-2.66h-.9v-.824Z" fill="#fff"/>
    <path id="Path_100" data-name="Path 100" d="M2014.769,93.839v.824h-.9v2.66c0,.169-1.05.169-1.05,0v-2.66h-.9v-.824Z" fill="#fff"/>
    <path id="Path_101" data-name="Path 101" d="M1982.762,93.839v.824h-.9v2.66c0,.169-1.05.169-1.05,0v-2.66h-.9v-.824Z" fill="#fff"/>
    <path id="Path_102" data-name="Path 102" d="M1971.069,93.839v.824h-.9v2.66c0,.183-.8.094-.974.112V94.663h-.975v-.824Z" fill="#fff"/>
    <path id="Path_103" data-name="Path 103" d="M1975.941,93.839v.824h-.975v2.772c-.168-.018-.974.071-.974-.112v-2.66h-.9v-.824Z" fill="#fff"/>
    <path id="Path_104" data-name="Path 104" d="M1960.949,93.839v3.484c0,.169-1.049.169-1.049,0V93.839Z" fill="#fff"/>
    <path id="Path_105" data-name="Path 105" d="M1940.785,93.839v3.484c0,.169-1.049.169-1.049,0V93.839Z" fill="#fff"/>
    <rect id="Rectangle_57" data-name="Rectangle 57" width="0.974" height="3.597" transform="translate(1971.593 93.839)" fill="#fff"/>
    <path id="Path_106" data-name="Path 106" d="M1948.806,93.839v3.484c0,.183-.806.094-.974.112v-3.6Z" fill="#fff"/>
    <path id="Path_107" data-name="Path 107" d="M2007.648,93.839v3.484c0,.183-.8.094-.974.112v-3.6Z" fill="#fff"/>
  </g>
</svg>
