<svg xmlns="http://www.w3.org/2000/svg" width="63.592" height="80.82" viewBox="0 0 63.592 80.82">
  <g id="Group_74" data-name="Group 74" transform="translate(-2026.706 -3018.472)">
    <text id="_" data-name="

" transform="translate(2066.006 3061.292)" fill="#002d72" font-size="15.946" font-family="BebasNeueBold, Bebas Neue" letter-spacing="0.06em"><tspan x="0" y="0"></tspan><tspan x="0" y="16.451"></tspan><tspan font-family="BebasNeueBold"><tspan x="0" y="32.901"></tspan></tspan></text>
    <path id="Path_108" data-name="Path 108" d="M2058.5,3039.5a5.514,5.514,0,1,1,5.514-5.514A5.523,5.523,0,0,1,2058.5,3039.5Zm10.295,8.581h-20.588a10.908,10.908,0,0,1,20.588,0Zm-27.186-5.922a5.514,5.514,0,1,1,5.514-5.513A5.523,5.523,0,0,1,2041.607,3042.162Zm-8.924,5.922a10.907,10.907,0,0,1,14.672-3,12.9,12.9,0,0,0-1.3,3Zm42.706-5.922a5.514,5.514,0,1,1,5.514-5.513A5.523,5.523,0,0,1,2075.389,3042.162Zm-4.444,5.922a12.9,12.9,0,0,0-1.3-3,10.908,10.908,0,0,1,14.673,3Z" fill="#777" fill-rule="evenodd"/>
    <path id="Path_109" data-name="Path 109" d="M2027.732,3052.186a1.026,1.026,0,1,1,0-2.051h61.54a1.026,1.026,0,1,1,0,2.051Zm1.336-4.1a1.132,1.132,0,0,1-.013-.165,29.447,29.447,0,1,1,58.894,0,1.115,1.115,0,0,1-.013.165h-2.025a1.024,1.024,0,0,1-.013-.165,27.4,27.4,0,0,0-54.792,0,1,1,0,0,1-.013.165Zm57.856,6.154v2.054l-4.709,1.812a24.428,24.428,0,0,1-2.943,7.1l2.045,4.616-5.437,5.436-4.616-2.044a24.1,24.1,0,0,1-7.1,2.943l-1.812,4.708h-7.69l-1.812-4.708a24.37,24.37,0,0,1-7.109-2.943l-4.616,2.044-5.436-5.436,2.052-4.616a24.325,24.325,0,0,1-2.951-7.1l-4.708-1.812v-2.054h15.127a13.418,13.418,0,0,0,26.6,0Z" fill="#002d72" fill-rule="evenodd"/>
  </g>
</svg>
