<svg xmlns="http://www.w3.org/2000/svg" width="75.206" height="78.083" viewBox="0 0 75.206 78.083">
  <g id="Group_75" data-name="Group 75" transform="translate(-2214.345 -3012.606)">
    <path id="Path_110" data-name="Path 110" d="M2231.929,3016.229a1.28,1.28,0,0,1-2.56,0v-2.343a1.28,1.28,0,0,1,2.56,0Zm12.359,8.611a1.277,1.277,0,1,1-1.28-2.21l2.03-1.173a1.277,1.277,0,0,1,1.28,2.211Zm-5.029-5.959a1.277,1.277,0,0,1-2.21-1.28l1.172-2.03a1.277,1.277,0,1,1,2.21,1.28Zm-20.975,3.749a1.275,1.275,0,1,1-1.27,2.21l-2.03-1.172a1.275,1.275,0,0,1,1.271-2.211Zm5.965-5.025a1.274,1.274,0,0,1-2.21,1.27l-1.172-2.03a1.274,1.274,0,1,1,2.21-1.269Zm6.4,1.988a9.951,9.951,0,0,1,9.951,9.951c0,5.527-3.531,5.2-4.01,13.342h-2.943v-9.676h1.033a3.593,3.593,0,1,0-3.593-3.592v1.032h-.876v-1.032a3.593,3.593,0,1,0-3.593,3.592h1.032v9.676h-2.943c-.479-8.145-4.009-7.815-4.009-13.342A9.951,9.951,0,0,1,2230.649,3019.593Zm-.438,23.293h.876v-9.677h-.876Zm-2.561-12.236h-1.032a1.032,1.032,0,1,1,1.032-1.032Zm6,0v-1.032a1.032,1.032,0,1,1,1.033,1.032Zm-8.89,14.8h11.784a1.623,1.623,0,0,1-1.567,1.221h-8.65A1.622,1.622,0,0,1,2224.757,3045.446Zm8.6,5h-5.415a1.622,1.622,0,0,1-1.567-1.221h8.55A1.624,1.624,0,0,1,2233.356,3050.448Zm-5.324,2.56h5.234a1.625,1.625,0,0,1-1.568,1.222h-2.1A1.625,1.625,0,0,1,2228.032,3053.008Z" fill="#777" fill-rule="evenodd"/>
    <path id="Path_111" data-name="Path 111" d="M2271.017,3053.623a18.533,18.533,0,1,1-18.533,18.533,18.533,18.533,0,0,1,18.533-18.533m-40.368,3.166v17.835a7.357,7.357,0,0,0-4.835,1.808v-22.056a4.182,4.182,0,0,0,3.785,2.413Zm19.88,20.4h-19.88a4.835,4.835,0,0,0,0,9.671h25.242a21.068,21.068,0,0,1-5.362-9.671m22.918-50.762h-30.68a12.555,12.555,0,0,1,.393,3.122,10.537,10.537,0,0,1-.989,4.765h24.573a1.28,1.28,0,1,1,0,2.56h-25.953a12.145,12.145,0,0,0-1.4,3.926h27.355a1.28,1.28,0,0,1,0,2.56h-27.593v1.7a4.155,4.155,0,0,1-.646,2.231h28.24a1.28,1.28,0,0,1,0,2.56H2237.41a4.188,4.188,0,0,1-1.535,2.32v.451a4.185,4.185,0,0,1-2.666,3.894v18.118h16.86a21.13,21.13,0,0,1,.049-5.327h-12.767a1.28,1.28,0,0,1,0-2.56h13.277a21.05,21.05,0,0,1,1.475-3.926h-14.752a1.28,1.28,0,1,1,0-2.559H2253.6a21.154,21.154,0,0,1,3.475-3.926h-19.728a1.28,1.28,0,1,1,0-2.56h23.33a20.992,20.992,0,0,1,10.336-2.7,21.246,21.246,0,0,1,2.43.14Zm11.434,48.856v-7.443a1.276,1.276,0,0,0-.92-1.518l-12.976-3.447a1.27,1.27,0,0,0-.668-.005l-12.977,3.446a1.278,1.278,0,0,0-.017,2.476l12.976,3.446a1.269,1.269,0,0,0,.668.005l11.354-3.016v6.056l-.654.31v4.836l1.934-1.192,1.935,1.192v-4.836Zm-4.807-2.81-8.45,2.244a3.825,3.825,0,0,1-2-.008l-8.419-2.236v3.777c11.259,2.059,7.606,2.059,18.864,0Z" fill="#002d72" fill-rule="evenodd"/>
  </g>
</svg>
