<svg xmlns="http://www.w3.org/2000/svg" width="44.556" height="69.108" viewBox="0 0 44.556 69.108">
  <g id="Group_79" data-name="Group 79" transform="translate(-1839.811 -3018.563)">
    <path id="Path_119" data-name="Path 119" d="M1882.582,3018.563H1841.6a1.78,1.78,0,0,0-1.785,1.785v20.645a1.782,1.782,0,0,0,1.053,1.625l12.192,5.515a21.751,21.751,0,0,1,7.3-1.8v-24.2h3.463v24.2a21.858,21.858,0,0,1,7.3,1.8l12.192-5.515a1.782,1.782,0,0,0,1.053-1.625v-20.645A1.78,1.78,0,0,0,1882.582,3018.563Zm-30.847,25.036-3.481-1.552v-19.913h3.481Zm24.189-1.552-3.463,1.552v-21.465h3.463Z" fill="#002d72"/>
    <path id="Path_120" data-name="Path 120" d="M1862.093,3087.671a18.931,18.931,0,1,1,18.932-18.932A18.953,18.953,0,0,1,1862.093,3087.671Zm0-34.292a15.361,15.361,0,1,0,15.361,15.36A15.379,15.379,0,0,0,1862.093,3053.379Z" fill="#777"/>
    <path id="Path_121" data-name="Path 121" d="M1862.729,3056.429l3.355,6.8,7.5,1.09a.709.709,0,0,1,.393,1.209l-5.429,5.292,1.282,7.471a.709.709,0,0,1-1.029.747l-6.71-3.527-6.709,3.527a.709.709,0,0,1-1.029-.747l1.282-7.471-5.429-5.292a.709.709,0,0,1,.393-1.209l7.5-1.09,3.355-6.8A.709.709,0,0,1,1862.729,3056.429Z" fill="#002d72"/>
  </g>
</svg>
